<?xml version="1.0" encoding="utf-8"?>
<!-- Generator: Adobe Illustrator 26.5.0, SVG Export Plug-In . SVG Version: 6.00 Build 0)  -->
<svg version="1.1" id="Layer_1" xmlns="http://www.w3.org/2000/svg" xmlns:xlink="http://www.w3.org/1999/xlink" x="0px" y="0px"
	 viewBox="0 0 1080 334.32" style="enable-background:new 0 0 1080 334.32;" xml:space="preserve">
<style type="text/css">
	.st0{fill:#FFFFFF;}
	.st1{font-family:'Montserrat-Bold';}
	.st2{font-size:14.8917px;}
</style>
<g>
	<g>
		<g>
			<g>
				<path class="st0" d="M94.91,244.16c0,0,9.06,6.61,22.57,8.19l-2.63,3.64c-0.24,0.33-0.63,0.53-1.04,0.53h-1.27
					c-0.52,0-0.94,0.43-0.94,0.95l0.03,2.73c0,0,0.46,2.64-1.02,3.58c0,0-6.04,3.34-4.6,11.19c0.12,0.64,0.19,1.28,0.19,1.93l0,3.99
					c0,0.28,0.03,0.56,0.09,0.83c0.17,0.74,0.61,2.24,1.63,3.63c0,0,1.08,2.66-2.08,1.72c0,0-5.03-1.65-7.76-10.85
					c0,0-6.25-28.39-6.32-28.17S94.91,244.16,94.91,244.16z"/>
				<path class="st0" d="M91.17,196.67l-16.01,12.34c0,0-10.61-3.33-6.44-16.39c0.2-0.63,0.49-1.22,0.84-1.78
					c0.7-1.13,2.15-3.56,4.15-7.49c0,0,7.17,1.83,8.57,2.16C82.28,185.51,81.58,191.61,91.17,196.67z"/>
				<path class="st0" d="M63.3,162.61c0,0-3.23,2.91-3.44,7.1c0,0.08-0.06,0.15-0.13,0.17c-0.43,0.14-1.89,0.3-3.65-3.13
					c0,0-1.51-2.1-2.64-2.48c0,0-5.17-0.27-6.9-2.1l-3.83-6.04c0,0-1.13-1.29,0-6.58l0.59-10.46c0,0-0.54-4.15-3.07,0.65l-1.62,4.91
					l-2.32-0.11l0.08-0.55c0.16-1.14,0.48-2.24,0.94-3.3l1.5-3.42c0.41-0.93,0.68-1.92,0.8-2.93l0.79-6.56c0,0,1.62-5.28,3.18-7.12
					l7.87,10.83c0,0-4.64,4.1-3.88,9.32c0,0-0.05,4.64,3.18,9.43l0.11,4.96c0,0,0.43,3.18,3.93,1.46c0,0,0.81-1.35,1.94,0.32
					L63.3,162.61z"/>
				<path class="st0" d="M87.29,82.81l6.83,6.76c0,0,4.28-4.22,7.61-0.92c0.42,0.42,0.93,0.74,1.49,0.93
					c1.46,0.5,3.94,0.85,4.08-2.38c0.03-0.59-0.15-1.18-0.49-1.67l-1.41-2l8.3-1.54l3.02,5.06c0.43,0.71,0.71,1.5,0.84,2.32
					l0.28,1.81c0,0,0.75,1.44,3.2-0.61l7.15-6.85c0.65-0.62,1.01-1.48,1.01-2.37v-0.16c0,0,20.46,1.21,26.01,4.07l3.65,4.55
					c0,0,2.71-4.01,6.7-5.41c0,0,1.62-0.38,2.91-0.27c0,0-6.43-3.18-16.85-5.34c0,0-13.94-3.23-21.35-2.91l-9.2-0.02
					C121.07,75.86,98.82,77.41,87.29,82.81z"/>
				<path class="st0" d="M19.16,227.92l4.89-2.01c0,0-7.04-20.66-6.07-35.65c0,0-1.44-18.87,6.07-36.76c0,0,4.06-14.34,19.05-33.8
					l-2.37-5.12c0,0-6.09,5.28-15.31,22.32c0,0-7.01,11.91-9.65,25.71c0,0-3.97,18.06-3.23,30.83
					C12.53,193.44,13.05,212.18,19.16,227.92z"/>
				<path class="st0" d="M79.96,287.26l-0.54,5.19c0,0,6.47,5.5,34.71,9.92c0,0,19.87,1.37,33.96-1.65c0,0,14.59-3.23,23.86-7.47
					c0,0,15.06-7.33,22.48-13.08c0,0,12.95-10.28,18.56-17.61c0,0,5.89-7.33,11.57-16.46c0,0,7.55-12.51,11.71-29.18
					c0,0,2.59-8.91,3.23-22.78c0,0-0.14-16.31-1.51-24.15c0,0-3.67-18.38-8.41-27.71c0,0-7.98-14.77-10.78-18.7
					c0,0-6.36-8.19-9.54-11.48c0,0-7.98-8.09-10.94-10.46c0,0-1.99,6.74-2.16,12.24c0,0-0.27,4.69,1.4,5.17c0,0,1.72,0.7,2.48-0.86
					l-0.92-1.62l2.52-0.09c0.31-0.01,0.63,0.03,0.93,0.12c1.09,0.33,3.63,1.41,5.45,4.5l1.67,3.4c0,0,0.59,2.16-2.96,2.1l-4.13,0.05
					c0,0-0.61-0.07-0.43,1.29c0,0-1.08,1.04-2.8-1.15l-4.02-3.02l-0.91,6.97c0,0-1.55,9.25-4.73,13.66l-12.07,14.32
					c0,0,10.6-3.9,17.21-3.47c0,0,16.04-1.01,24.88,14.95c0,0,3.02,3.48,2.92,15.76c0,0.45,0.01,0.9,0.04,1.36l1.3,18.46
					l-12.72-5.01c0,0-1.4,9.11-3.18,11.43c0,0-2.53,3.13-0.97,7.98c0,0,2.05,2.1-0.65,15.04l-3.13,6.52c0,0-2.21,5.93,0.97,9.32
					c0,0,2.21,3.34,6.68-1.08c0,0,6.36-7.33,7.76-11.43l10.62-18.16c0,0-2.96,11.97-7.11,18.49c0,0-5.71,10.46-11,16.87
					c0,0-5.66,8.25-16.33,16.93c0,0-6.63,5.66-16.39,11.05c0,0-8.3,4.53-18,8.03c0,0-11.64,4.15-23.93,4.96
					c0,0-10.89,1.62-27.71-0.75C108.9,295.96,99.42,295.17,79.96,287.26z"/>
			</g>
			<g>
				<g>
					<path class="st0" d="M128.85,179.61c-1.32-2.19-4.35-7.54-5.41-12.21c0,0-2.3-13.87-2.66-20.05c0,0-0.93-12.43-5.17-16.6
						c0,0-7.07-10.33-13.86-15.26c-0.25-0.18-0.49-0.37-0.73-0.56c-2.59-2.18-18.49-15.57-18.62-16.16c0,0-12.04-13.62-15.16-20.84
						c0,0-3.8-8.12-5.03-14.77c-0.01-0.04,0.05-0.06,0.07-0.03l4.15,6.89c0.06,0.09,0.11,0.19,0.15,0.29
						c0.52,1.13,4.22,9.02,11.72,19.05c0,0,9.99,11.86,17.18,16.75l12.22,10.42c0,0,7.91,6.25,11.28,12.65c0,0,2.65,2.85,4.65,14.1
						c0.15,0.87,0.24,1.76,0.25,2.64c0.05,3.82,0.37,15.69,2.58,22.86c0,0,1.37,5.88,4.83,12.7c0.07,0.14-0.09,0.29-0.22,0.2
						l-0.65-0.43C129.78,180.82,129.24,180.27,128.85,179.61z"/>
					<path class="st0" d="M200.48,175.54c0,0,7.87-0.92,5.93,3.67C206.41,179.21,203.99,181.47,200.48,175.54z"/>
				</g>
				<path class="st0" d="M216.08,53.59c-2.39-0.05-4.76,0.5-6.94,1.49c-4.87,2.21-14.47,7.7-19.33,18.21l-2.15,5.07
					c0,0-3.78-6.36-9.06-1.73c0,0-5.71,4.85-7.33,13.26L169.49,89c-0.85-0.43-1.85-0.46-2.73-0.07c-1.45,0.64-3.61,2.23-5.63,6.14
					c0,0-3.45,7.33-3.78,16.49l-2.54-2.37c-0.44-0.41-1.02-0.63-1.62-0.6c-1.72,0.07-5.08,0.98-6.19,6.74c0,0-3.02,8.73-3.02,16.49
					l-2.71-2.71c-0.24-0.24-0.53-0.43-0.85-0.53c-0.97-0.28-2.8,0-3.81,5.37c-0.04,0.23-0.07,0.47-0.08,0.7
					c-0.11,1.87-0.56,10.66,0.02,16.89l0.32,14.56l-0.16,1.21l-0.87-2.02c0,0-1.89-7.82-3.29-18.6l-1.01-11.42
					c0,0-1.8-14.88-15.45-22.71c0,0-25.95-18.61-29.47-23.79c0,0-5.6-4.32-10.46-12.92c0,0-7.65-11.29-10.46-18.74l-4.74-9.92
					c0,0-1.91-3.91-6.22-6.46c-0.37-0.22-0.79-0.33-1.22-0.33c-1.39,0.02-4.17,0.74-4.09,6.25l1.08,12.72l-2.28-0.89
					c-0.16-0.06-0.33-0.1-0.51-0.11c-0.8-0.03-2.91,0.17-2.61,3.15c0,0-0.54,8.73,4.2,17.24l-3.45-0.64c0,0-4.96-0.65-3.45,6.36
					c0,0,1.02,8.08,7.36,17.14l-4.77-0.87c0,0-5.5-1.51-1.94,8.3c0,0,7.97,17.35,17.35,25.44l-4.18,0.09
					c-0.49,0.01-0.96,0.17-1.34,0.47c-1.44,1.11-4.49,4.27-1.7,9.68c0,0,2.69,6.57,10.08,12.18l9.43,7.11l-5.6,1.83
					c0,0-6.25,3.77,0.11,9.27c0,0,6.69,4.2,10.78,4.53l11.42,3.13l-1.51,2.37c0,0-3.02,3.13,4.53,6.47l8.4,3.2l-0.74,0.79
					l-3.88,3.07l-21.4,16.39c0,0-11.7,7.6-18.33,9.43c0,0-11.1,2.82-23.44,3.96c-0.25,0.02-0.49,0.06-0.74,0.1
					c-2.5,0.45-15.78,3.15-19.99,10.02c-0.19,0.32-0.33,0.67-0.43,1.03c-0.47,1.71-1.44,6.54,2.26,7.5
					c0.21,0.05,0.56,0.09,0.77,0.09l5.77-0.15c0,0,1.19,0.23-0.22,1.19c0,0-6.66,5.61-6.28,10.86c0.02,0.25,0.07,0.49,0.07,0.74
					c0.01,0.52,0.07,1.6,0.39,2.94c0.26,1.08,1.12,1.94,2.21,2.19c0.83,0.2,1.97,0.3,3.44,0.08c0,0,0.62,0.03,0.05,1.02
					c0,0-3.02,5.28-1.83,9.59c0,0,1.51,7.31,7.36,5.16c0.37-0.14,0.72-0.33,1.04-0.57l3.03-2.27c0,0,0.86-0.59,0.65,1.02
					c0,0-0.75,6.14,2.64,10.62c0,0,3.2,4.96,8.11,1.14c0.06-0.04,0.11-0.09,0.16-0.14l2.83-2.83c0,0,0.49-0.55,0.49,0.59
					c0,0,1.29,6.25,7.38,9.16c0,0,6.53,4.14,9.07-2.7c0.13-0.35,0.21-0.71,0.22-1.08l0.17-3.41c0.01-0.28,0.3-0.47,0.56-0.38
					c0.2,0.07,0.36,0.22,0.47,0.42c0.05,0.09,0.1,0.18,0.17,0.26c0.56,0.67,3.32,3.9,5.4,4.62c0,0,4.84,1.74,6.51-5.23
					c0.04-0.17,0.06-0.35,0.05-0.53c-0.11-2.16-0.83-16.77,0.12-20.81c0,0,0.81-9.16,8.95-19.73l9.79-11.4l0.26,0.23l5.63,3.62
					c10.03,5.98,19.94,6.36,19.94,6.36c6.58,0.11,13.74-2.21,13.74-2.21c4.91-1.99,11.91-6.58,11.91-6.58
					c6.2-4.31,13.69-11.91,13.69-11.91l12.83-14.23l12.88-12.67c0.22-0.21,0.46-0.4,0.71-0.56l2.41-1.51
					c0.43-0.27,0.84-0.58,1.21-0.93l1.36-1.29c0.09-0.08,0.16-0.19,0.21-0.3c0.45-0.86,1.05-0.26,1.05-0.26
					c7.44,5.12,16.66,0.56,16.66,0.56c0.71-0.51,1.61-0.49,2.41-0.31l8.66,3.54l-0.93-8.55l-0.43-5.89l-0.43-6.86
					c-1.4-11-15.09-16.6-15.09-16.6c-8.09-3.56-19.51,0.97-19.51,0.97l-7.81,2.8h-0.01l-0.02,0.01l-2.3,1.13l-3.54,1.74l-0.94,0.29
					c0,0,0.2-3.46,1.77-5.84c0.15-0.22,0.28-0.45,0.38-0.69c0.61-1.41,3.3-7,10.64-14.42c0,0,8.62-6.47,9.27-21.56
					c0,0,1.91-24.36,4.08-28.25c0,0,6.27-17.68,13.17-26.3c0,0,5.24-7.08,11.3-11.21c1.01-0.69,1.73-1.75,1.88-2.96
					C220.97,55.42,220.26,53.68,216.08,53.59z M217.16,195.4c-0.08,1.36-1.33,0.75-1.33,0.75l-5.33-2.51l-0.14-0.18
					c-0.11-0.14-0.15-0.33-0.12-0.5c0.91-4.4,4.69-4.19,5.5-4.09c0.05,0.2,0.15,0.39,0.29,0.54c0.82,0.87,0.95,1.96,0.95,1.96
					L217.16,195.4z M182.07,165.51c14.33-4.55,21.32-0.59,21.32-0.59c8.54,3.33,11.16,11.82,11.8,14.56
					c0.12,0.5,0.18,1.02,0.18,1.53l0.03,4.57v0.85l-0.32-0.06c-5.86,1.01-6.59,4.67-6.67,5.72c-0.02,0.19-0.09,0.37-0.23,0.51
					c-3.49,3.44-9.52,2.72-9.52,2.72c-7.15-0.86-11.89-8.95-11.89-8.95v2.2c0,0.23,0.06,0.45,0.18,0.64l1.73,2.86
					c0.27,0.33,0.32,0.71,0.29,1.02c-0.03,0.36-0.26,0.67-0.59,0.81l-3.78,1.53c-0.59,0.24-1.12,0.57-1.6,0.99
					c-4.26,3.77-12.05,12.05-13.41,13.5c-0.14,0.15-0.26,0.3-0.38,0.47c-3.55,4.96-19.54,20.43-19.54,20.43
					c-14.68,14-29.21,13.69-29.21,13.69c-13.42,1.29-29.75-10.83-29.75-10.83l-1.82-0.42l2.56,2.32l0.9,0.78l-0.13,0.15
					c0,0-6.2,8.22-10.08,11.72c0,0-3.4,3.72-5.28,6.95c0,0-4.31,5.88-4.91,15.42l-0.27,15.93c0,0.11-0.01,0.21-0.02,0.32
					c-0.15,1.25-1.27,8.32-7.04,1.76l-1.93-2.78c-0.26-0.37-0.4-0.8-0.42-1.25c-0.08-2.11-0.27-8.59,0.35-12.25
					c0,0-1.56,0.49-1.62,2.48l-1.4,7.28l-1.19,5.82l-0.65,2.95c0,0-0.47,3.48-5.08,3.21c-0.43-0.03-0.85-0.12-1.25-0.29
					c-1.15-0.51-3.24-1.99-3.16-5.93c0-0.12,0-0.25-0.02-0.38c-0.13-1.01-0.64-6.73,3.33-14.22l4.82-10.28c0,0-0.79-0.45-1.6,0.36
					l-8.09,13.26l-3.93,7.28c0,0-2.91,4.71-7.01,3.38c0,0-1.56-0.15-2.7-3.92c0,0-0.7-3.5,1.56-7.87c0,0,2.32-5.93,7.28-11.53
					c0,0,6.74-7.87,11.05-10.4c0,0-0.81-1.19-2.21-0.16l-8.52,6.47c0,0-5.51,5.72-7.62,8.77c-0.13,0.19-0.27,0.37-0.42,0.55
					c-0.74,0.85-3.1,3.5-4.36,4.69c-0.22,0.21-0.47,0.38-0.75,0.51c-0.96,0.45-2,0.7-3.07,0.74l-1.61,0.05
					c-0.16,0.01-0.32,0-0.48-0.03c-0.76-0.13-2.77-0.7-3.28-3.11c-0.04-0.17-0.04-0.34-0.03-0.51c0.05-0.87,0.46-3.47,3.34-6.97
					c0,0,3.61-4.69,6.79-7.12c0,0,5.59-4.71,11.44-7.79c0.22-0.12,0.27-0.41,0.1-0.59c-0.19-0.2-0.5-0.37-0.93-0.14l-12.02,6.52
					l-5.06,3.62c-0.04,0.03-0.08,0.06-0.13,0.08l-1.19,0.73c-0.62,0.38-1.34,0.58-2.07,0.58h-0.57c-0.79,0-1.56-0.36-1.99-1.03
					c-0.26-0.41-0.43-0.95-0.31-1.67c0,0,0.32-3.73,3.96-7.72c0.08-0.08,0.15-0.17,0.22-0.26c0.5-0.7,3.36-4.36,9.19-6.35l4.42-1.99
					c0.23-0.1,0.3-0.41,0.11-0.59c-0.22-0.22-0.63-0.42-1.36-0.34l-10.19,2.86c0,0-2.86,0.81-4.91,0.32c0,0-0.79-0.04-2.05-0.64
					c-0.41-0.19-0.77-0.48-1.02-0.85c-0.67-0.97-0.72-2.4,2.16-4.7c0,0,2.66-2.53,9.2-4.26l15.76-3.23l8.92-2.02
					c0.13-0.03,0.25-0.06,0.37-0.1l11.73-3.78c0,0,5.86-2.2,12.11-7.88l15.54-11.82l11.93-8.68c0,0,0.41,3.5,2.24,4.9
					c0,0,5.76,4.47,13.66,2.52c0.09-0.02,0.19-0.06,0.27-0.1l1.31-0.62c0.17-0.08,0.15-0.34-0.03-0.39l-3.12-0.87
					c0,0-5.5-0.3-8.06-3.79c-0.22-0.3-0.37-0.66-0.42-1.03l-0.46-2.96c-0.07-0.44-0.43-0.76-0.87-0.79l-6.25-0.38
					c0,0-4.96-0.65-8.41-3.56c0,0-3.34-4.24,2.37-6.65l-7.48-2.19c0,0-11.49-2.37-15.48-5.07l-3.56-3.48c0,0-2.48-4.17,4.85-4.6
					l5.71-0.64l-12.64-8.41c0,0-9.89-10.67-10.11-12.28c0,0-2.8-8.41,2.48-7.66l7.76,0.32l-9.05-9.16c0,0-9.16-13.05-10.56-16.6
					c0,0-3.77-8.74,3.13-6.47l4.64,1.4c0,0-5.71-7.01-7.22-10.89l-2.91-8.84c0,0-1.08-6.58,3.34-5.28l3.66,0.43l-3.1-6.71
					c0,0-1.75-7.09-0.78-9.78c0,0,0.75-3.13,3.23-2.59l1.83,0.16l-0.97-9.27l-0.11-7.76c0,0,0.76-3.83,2.59-1.89
					c0,0,3.38,3.52,7.91,13.22c0,0,7.48,13.01,7.98,14.73c0,0,5.32,9.49,7.94,12.22L87,93.09l10.71,9.06l12.65,9.84
					c0,0,10.42,7.9,12.79,12.14c0,0,3.45,3.88,4.81,11.79l2.08,21.27c0,0,2.3,10.49,6.22,16.03c0,0,2.48,3.16,7.08,4.09
					c0,0,6.83,1.94,14.38-0.64l7.4-3.54l10.51-5.03l0.59-0.28l0,0l1.66-0.81l0.03-0.01l0.08-0.03L182.07,165.51L182.07,165.51z
					 M215.72,60.46c0,0-13.16,9.23-15.06,15.62c-0.08,0.27-0.16,0.53-0.28,0.78l-6.58,14.36l-4.6,13.73c0,0-3.59,13.3-3.38,20.12
					c0,0,0.29,9.2-5.53,17.68l-8.84,10.19c0,0-6.83,7.2-6.39,16.26l0.01,0.55l-1.39,0.84l-6.95,3.07c0,0-11.72,3.19-18.8-3.53
					l0.15-0.68l0.54-20.26l0.11-8.3c0,0,0.81-10.95,4.94-2.98c0.2,0.4,0.78,0.39,0.96-0.02c0.32-0.69,0.75-1.79,1.18-3.38
					c0.05-0.17,0.08-0.34,0.1-0.52c0.24-1.75,1.82-12.33,5.58-18.19c0,0,2.59-3.81,6.18,1.29c0,0,0.19,0.32,0.36,0.07l2.52-10.13
					c0,0,0.72-5.1,7.26-13.23c0,0,1.1-1.87,4.26,1.54c0.25,0.26,0.69,0.17,0.79-0.18l1.77-5.89c0,0,1.44-6.68,6.54-9.27
					c0,0,3.69-0.89,6.47,1.82c0.41,0.4,1.08,0.29,1.32-0.22l2.5-5.33c0.16-0.34,0.34-0.68,0.53-1.01
					c1.14-1.97,5.17-8.45,10.67-12.08c0,0,5.23-4.01,11.47-5.42c0.53-0.12,1.07-0.16,1.61-0.08
					C216.74,57.84,217.82,58.41,215.72,60.46z"/>
			</g>
		</g>
		<g>
			<g>
				<text transform="matrix(1 0 0 1 226.8337 47.6359)" class="st0 st1 st2">R</text>
			</g>
			<g>
				<g>
					<path class="st0" d="M232.08,53.77c-6.14,0-11.13-4.99-11.13-11.13s4.99-11.13,11.13-11.13c6.14,0,11.13,4.99,11.13,11.13
						S238.22,53.77,232.08,53.77z M232.08,33.77c-4.89,0-8.87,3.98-8.87,8.87s3.98,8.87,8.87,8.87c4.89,0,8.87-3.98,8.87-8.87
						S236.97,33.77,232.08,33.77z"/>
				</g>
			</g>
		</g>
	</g>
	<g>
		<path class="st0" d="M300.34,140.59l20.45-45.89h10.49l20.52,45.89h-11.14l-16.78-40.51h4.2l-16.85,40.51H300.34z M310.57,130.75
			l2.82-8.06h23.6l2.88,8.06H310.57z"/>
		<path class="st0" d="M370.68,141.11c-3.32,0-6.32-0.75-8.98-2.26c-2.67-1.51-4.78-3.62-6.33-6.33c-1.55-2.71-2.33-5.9-2.33-9.57
			c0-3.71,0.78-6.93,2.33-9.64c1.55-2.71,3.66-4.81,6.33-6.29c2.67-1.49,5.66-2.23,8.98-2.23c2.97,0,5.57,0.66,7.8,1.97
			c2.23,1.31,3.95,3.3,5.18,5.97c1.22,2.67,1.84,6.08,1.84,10.23c0,4.11-0.59,7.51-1.77,10.19c-1.18,2.69-2.87,4.69-5.08,6
			C376.44,140.45,373.78,141.11,370.68,141.11z M372.45,132.72c1.66,0,3.17-0.39,4.52-1.18c1.35-0.79,2.44-1.91,3.25-3.38
			c0.81-1.46,1.21-3.2,1.21-5.21c0-2.05-0.4-3.8-1.21-5.25c-0.81-1.44-1.89-2.56-3.25-3.34c-1.35-0.79-2.86-1.18-4.52-1.18
			c-1.7,0-3.23,0.39-4.59,1.18c-1.35,0.79-2.44,1.9-3.25,3.34c-0.81,1.44-1.21,3.19-1.21,5.25c0,2.01,0.4,3.75,1.21,5.21
			c0.81,1.46,1.89,2.59,3.25,3.38C369.22,132.33,370.75,132.72,372.45,132.72z M381.69,140.59v-7.21l0.2-10.49l-0.66-10.42V91.94
			h10.23v48.64H381.69z"/>
		<path class="st0" d="M420.18,140.59V94.7h8.78l19.54,32.39h-4.65l19.21-32.39h8.72l0.13,45.89h-9.96l-0.07-30.62h1.84
			l-15.34,25.76h-4.79l-15.67-25.76h2.23v30.62H420.18z"/>
		<path class="st0" d="M492.95,141.11c-2.75,0-5.11-0.47-7.08-1.41s-3.47-2.22-4.52-3.83s-1.57-3.43-1.57-5.44
			c0-2.1,0.51-3.93,1.54-5.51c1.03-1.57,2.65-2.81,4.88-3.7s5.14-1.34,8.72-1.34h9.38v5.97h-8.26c-2.4,0-4.05,0.39-4.95,1.18
			c-0.9,0.79-1.34,1.77-1.34,2.95c0,1.31,0.51,2.35,1.54,3.11c1.03,0.76,2.44,1.15,4.23,1.15c1.7,0,3.23-0.4,4.59-1.21
			c1.35-0.81,2.34-2,2.95-3.57l1.57,4.72c-0.74,2.27-2.1,4-4.06,5.18C498.58,140.52,496.05,141.11,492.95,141.11z M503.7,140.59
			v-6.88l-0.66-1.51v-12.33c0-2.18-0.67-3.89-2-5.11c-1.33-1.22-3.38-1.84-6.13-1.84c-1.88,0-3.73,0.3-5.54,0.89
			c-1.81,0.59-3.35,1.39-4.62,2.39l-3.67-7.15c1.92-1.35,4.24-2.4,6.95-3.15c2.71-0.74,5.46-1.11,8.26-1.11
			c5.38,0,9.55,1.27,12.52,3.8c2.97,2.54,4.46,6.49,4.46,11.87v20.13H503.7z"/>
		<path class="st0" d="M527.63,100.4c-1.88,0-3.41-0.55-4.59-1.64c-1.18-1.09-1.77-2.45-1.77-4.06c0-1.62,0.59-2.97,1.77-4.06
			c1.18-1.09,2.71-1.64,4.59-1.64c1.88,0,3.41,0.51,4.59,1.54c1.18,1.03,1.77,2.35,1.77,3.97c0,1.7-0.58,3.11-1.74,4.23
			C531.09,99.84,529.55,100.4,527.63,100.4z M522.51,140.59v-35.27h10.23v35.27H522.51z"/>
		<path class="st0" d="M559.03,141.11c-3.76,0-7.09-0.79-10-2.36c-2.91-1.57-5.2-3.73-6.88-6.46c-1.68-2.73-2.53-5.84-2.53-9.34
			c0-3.54,0.84-6.68,2.53-9.41c1.68-2.73,3.98-4.87,6.88-6.42c2.91-1.55,6.24-2.33,10-2.33c3.71,0,7.04,0.78,9.96,2.33
			c2.93,1.55,5.22,3.68,6.88,6.39c1.66,2.71,2.49,5.86,2.49,9.44c0,3.5-0.83,6.61-2.49,9.34c-1.66,2.73-3.96,4.88-6.88,6.46
			C566.06,140.32,562.74,141.11,559.03,141.11z M559.03,132.72c1.7,0,3.23-0.39,4.59-1.18s2.43-1.91,3.21-3.38
			c0.79-1.46,1.18-3.2,1.18-5.21c0-2.05-0.39-3.8-1.18-5.25s-1.86-2.56-3.21-3.34c-1.36-0.79-2.88-1.18-4.59-1.18
			c-1.71,0-3.24,0.39-4.59,1.18c-1.36,0.79-2.44,1.9-3.24,3.34c-0.81,1.44-1.21,3.19-1.21,5.25c0,2.01,0.4,3.75,1.21,5.21
			c0.81,1.46,1.89,2.59,3.24,3.38C555.79,132.33,557.32,132.72,559.03,132.72z"/>
		<path class="st0" d="M585.19,140.59v-35.27h9.77v9.96l-1.38-2.88c1.05-2.49,2.73-4.38,5.05-5.67s5.14-1.93,8.46-1.93v9.44
			c-0.44-0.04-0.83-0.08-1.18-0.1c-0.35-0.02-0.72-0.03-1.11-0.03c-2.8,0-5.06,0.8-6.79,2.39c-1.73,1.6-2.59,4.08-2.59,7.44v16.65
			H585.19z"/>
		<path class="st0" d="M630.36,141.11c-4.02,0-7.55-0.79-10.59-2.36c-3.04-1.57-5.39-3.73-7.05-6.46c-1.66-2.73-2.49-5.84-2.49-9.34
			c0-3.54,0.82-6.68,2.46-9.41c1.64-2.73,3.88-4.87,6.72-6.42c2.84-1.55,6.05-2.33,9.64-2.33c3.45,0,6.57,0.73,9.34,2.2
			c2.77,1.46,4.97,3.56,6.59,6.29c1.62,2.73,2.42,6,2.42,9.8c0,0.39-0.02,0.84-0.07,1.34c-0.04,0.5-0.09,0.97-0.13,1.41h-28.65
			v-5.97h23.27l-3.93,1.77c0-1.84-0.37-3.43-1.11-4.79c-0.74-1.35-1.77-2.41-3.08-3.18s-2.84-1.15-4.59-1.15
			c-1.75,0-3.29,0.38-4.62,1.15c-1.33,0.76-2.37,1.83-3.11,3.21s-1.11,3-1.11,4.88v1.57c0,1.92,0.43,3.62,1.28,5.08
			c0.85,1.46,2.05,2.58,3.61,3.34s3.38,1.15,5.47,1.15c1.88,0,3.53-0.28,4.95-0.85c1.42-0.57,2.72-1.42,3.9-2.56l5.44,5.9
			c-1.62,1.83-3.65,3.25-6.1,4.23C636.36,140.62,633.55,141.11,630.36,141.11z"/>
		<path class="st0" d="M699.39,104.79c2.8,0,5.28,0.56,7.44,1.67s3.87,2.82,5.11,5.11c1.25,2.29,1.87,5.23,1.87,8.82v20.19h-10.23
			v-18.62c0-2.84-0.59-4.94-1.77-6.29c-1.18-1.35-2.84-2.03-4.98-2.03c-1.49,0-2.82,0.34-4,1.02c-1.18,0.68-2.1,1.69-2.75,3.05
			c-0.66,1.36-0.98,3.08-0.98,5.18v17.7h-10.23v-18.62c0-2.84-0.58-4.94-1.74-6.29c-1.16-1.35-2.81-2.03-4.95-2.03
			c-1.49,0-2.82,0.34-4,1.02c-1.18,0.68-2.1,1.69-2.75,3.05c-0.66,1.36-0.98,3.08-0.98,5.18v17.7h-10.23v-35.27h9.77v9.64
			l-1.84-2.82c1.22-2.4,2.96-4.23,5.21-5.47c2.25-1.25,4.82-1.87,7.7-1.87c3.23,0,6.06,0.82,8.49,2.46
			c2.42,1.64,4.03,4.14,4.82,7.51l-3.61-0.98c1.18-2.75,3.07-4.94,5.67-6.56C693.04,105.6,696.02,104.79,699.39,104.79z"/>
		<path class="st0" d="M742.26,140.59V94.7h20.85c4.98,0,9.37,0.95,13.18,2.85c3.8,1.9,6.77,4.56,8.92,7.97
			c2.14,3.41,3.21,7.45,3.21,12.13c0,4.63-1.07,8.67-3.21,12.1c-2.14,3.43-5.11,6.1-8.92,8c-3.8,1.9-8.2,2.85-13.18,2.85H742.26z
			 M752.88,131.87h9.7c3.06,0,5.71-0.58,7.97-1.74c2.25-1.16,4-2.81,5.24-4.95c1.25-2.14,1.87-4.65,1.87-7.54
			c0-2.93-0.62-5.45-1.87-7.57c-1.25-2.12-2.99-3.76-5.24-4.92c-2.25-1.16-4.91-1.74-7.97-1.74h-9.7V131.87z"/>
		<path class="st0" d="M813.2,141.11c-4.02,0-7.55-0.79-10.59-2.36c-3.04-1.57-5.39-3.73-7.05-6.46c-1.66-2.73-2.49-5.84-2.49-9.34
			c0-3.54,0.82-6.68,2.46-9.41c1.64-2.73,3.88-4.87,6.72-6.42c2.84-1.55,6.05-2.33,9.64-2.33c3.45,0,6.57,0.73,9.34,2.2
			c2.77,1.46,4.97,3.56,6.59,6.29c1.62,2.73,2.42,6,2.42,9.8c0,0.39-0.02,0.84-0.07,1.34c-0.04,0.5-0.09,0.97-0.13,1.41H801.4v-5.97
			h23.27l-3.93,1.77c0-1.84-0.37-3.43-1.11-4.79c-0.74-1.35-1.77-2.41-3.08-3.18s-2.84-1.15-4.59-1.15c-1.75,0-3.29,0.38-4.62,1.15
			c-1.33,0.76-2.37,1.83-3.11,3.21s-1.11,3-1.11,4.88v1.57c0,1.92,0.43,3.62,1.28,5.08c0.85,1.46,2.05,2.58,3.61,3.34
			s3.38,1.15,5.47,1.15c1.88,0,3.53-0.28,4.95-0.85c1.42-0.57,2.72-1.42,3.9-2.56l5.44,5.9c-1.62,1.83-3.65,3.25-6.1,4.23
			C819.2,140.62,816.39,141.11,813.2,141.11z"/>
		<path class="st0" d="M842.17,100.4c-1.88,0-3.41-0.55-4.59-1.64c-1.18-1.09-1.77-2.45-1.77-4.06c0-1.62,0.59-2.97,1.77-4.06
			c1.18-1.09,2.71-1.64,4.59-1.64c1.88,0,3.41,0.51,4.59,1.54c1.18,1.03,1.77,2.35,1.77,3.97c0,1.7-0.58,3.11-1.74,4.23
			C845.63,99.84,844.09,100.4,842.17,100.4z M837.06,140.59v-35.27h10.23v35.27H837.06z"/>
		<path class="st0" d="M898.22,141.37c-3.63,0-6.96-0.58-10-1.74c-3.04-1.16-5.68-2.81-7.93-4.95c-2.25-2.14-4-4.65-5.25-7.54
			c-1.25-2.88-1.87-6.05-1.87-9.51c0-3.45,0.62-6.62,1.87-9.51c1.25-2.88,3-5.4,5.28-7.54c2.27-2.14,4.94-3.79,8-4.95
			c3.06-1.16,6.42-1.74,10.1-1.74c4.06,0,7.72,0.68,10.98,2.03c3.25,1.35,6,3.32,8.23,5.9l-6.82,6.29c-1.66-1.75-3.47-3.05-5.44-3.9
			c-1.97-0.85-4.11-1.28-6.42-1.28c-2.23,0-4.26,0.35-6.1,1.05c-1.83,0.7-3.42,1.7-4.75,3.02c-1.33,1.31-2.36,2.86-3.08,4.65
			c-0.72,1.79-1.08,3.78-1.08,5.97c0,2.14,0.36,4.11,1.08,5.9c0.72,1.79,1.75,3.35,3.08,4.69s2.91,2.35,4.72,3.05
			c1.81,0.7,3.81,1.05,6,1.05c2.1,0,4.14-0.34,6.13-1.02c1.99-0.68,3.92-1.82,5.8-3.44l6.03,7.67c-2.49,1.88-5.39,3.32-8.69,4.33
			S901.5,141.37,898.22,141.37z M907.07,134.16v-17.24h9.7v18.62L907.07,134.16z"/>
		<path class="st0" d="M925.89,140.59V91.94h10.23v48.64H925.89z"/>
		<path class="st0" d="M962.4,141.11c-3.76,0-7.09-0.79-10-2.36s-5.2-3.73-6.88-6.46c-1.68-2.73-2.52-5.84-2.52-9.34
			c0-3.54,0.84-6.68,2.52-9.41c1.68-2.73,3.98-4.87,6.88-6.42c2.91-1.55,6.24-2.33,10-2.33c3.71,0,7.04,0.78,9.96,2.33
			c2.93,1.55,5.22,3.68,6.88,6.39c1.66,2.71,2.49,5.86,2.49,9.44c0,3.5-0.83,6.61-2.49,9.34c-1.66,2.73-3.96,4.88-6.88,6.46
			C969.44,140.32,966.12,141.11,962.4,141.11z M962.4,132.72c1.7,0,3.23-0.39,4.59-1.18c1.35-0.79,2.43-1.91,3.21-3.38
			c0.79-1.46,1.18-3.2,1.18-5.21c0-2.05-0.39-3.8-1.18-5.25c-0.79-1.44-1.86-2.56-3.21-3.34c-1.36-0.79-2.88-1.18-4.59-1.18
			s-3.24,0.39-4.59,1.18c-1.36,0.79-2.44,1.9-3.25,3.34c-0.81,1.44-1.21,3.19-1.21,5.25c0,2.01,0.4,3.75,1.21,5.21
			c0.81,1.46,1.89,2.59,3.25,3.38C959.17,132.33,960.7,132.72,962.4,132.72z"/>
		<path class="st0" d="M988.56,140.59v-35.27h9.77v9.96l-1.38-2.88c1.05-2.49,2.73-4.38,5.05-5.67s5.14-1.93,8.46-1.93v9.44
			c-0.44-0.04-0.83-0.08-1.18-0.1c-0.35-0.02-0.72-0.03-1.11-0.03c-2.8,0-5.06,0.8-6.79,2.39c-1.73,1.6-2.59,4.08-2.59,7.44v16.65
			H988.56z"/>
		<path class="st0" d="M1021.67,100.4c-1.88,0-3.41-0.55-4.59-1.64c-1.18-1.09-1.77-2.45-1.77-4.06c0-1.62,0.59-2.97,1.77-4.06
			c1.18-1.09,2.71-1.64,4.59-1.64c1.88,0,3.41,0.51,4.59,1.54c1.18,1.03,1.77,2.35,1.77,3.97c0,1.7-0.58,3.11-1.74,4.23
			C1025.13,99.84,1023.59,100.4,1021.67,100.4z M1016.55,140.59v-35.27h10.23v35.27H1016.55z"/>
		<path class="st0" d="M1047.17,141.11c-2.75,0-5.11-0.47-7.08-1.41s-3.47-2.22-4.52-3.83s-1.57-3.43-1.57-5.44
			c0-2.1,0.51-3.93,1.54-5.51c1.03-1.57,2.66-2.81,4.88-3.7c2.23-0.9,5.13-1.34,8.72-1.34h9.38v5.97h-8.26
			c-2.4,0-4.05,0.39-4.95,1.18c-0.9,0.79-1.34,1.77-1.34,2.95c0,1.31,0.51,2.35,1.54,3.11c1.03,0.76,2.44,1.15,4.23,1.15
			c1.71,0,3.23-0.4,4.59-1.21c1.35-0.81,2.34-2,2.95-3.57l1.57,4.72c-0.74,2.27-2.1,4-4.06,5.18
			C1052.81,140.52,1050.27,141.11,1047.17,141.11z M1057.92,140.59v-6.88l-0.66-1.51v-12.33c0-2.18-0.67-3.89-2-5.11
			c-1.33-1.22-3.38-1.84-6.13-1.84c-1.88,0-3.73,0.3-5.54,0.89c-1.81,0.59-3.36,1.39-4.62,2.39l-3.67-7.15
			c1.92-1.35,4.24-2.4,6.95-3.15c2.71-0.74,5.46-1.11,8.26-1.11c5.38,0,9.55,1.27,12.52,3.8c2.97,2.54,4.46,6.49,4.46,11.87v20.13
			H1057.92z"/>
	</g>
	<g>
		<path class="st0" d="M305.04,232h-4.95v-46.79h4.95V232z M334.78,210.42h-30.28v-4.34h30.28V210.42z M334.32,185.22h4.88V232
			h-4.88V185.22z"/>
		<path class="st0" d="M367.33,227.73h28.14V232h-33.08v-46.79h32.08v4.28h-27.14V227.73z M366.8,206.14h24.73v4.21H366.8V206.14z"
			/>
		<path class="st0" d="M407.57,232l21.39-46.79h4.88L455.22,232h-5.21l-19.65-43.91h2L412.72,232H407.57z M415.99,219.51l1.47-4.01
			h27.2l1.47,4.01H415.99z"/>
		<path class="st0" d="M470.93,232v-46.79h4.95v42.51h26.2V232H470.93z"/>
		<path class="st0" d="M523,232V189.5h-16.44v-4.28h37.83v4.28h-16.44V232H523z"/>
		<path class="st0" d="M565.17,232h-4.95v-46.79h4.95V232z M594.91,210.42h-30.28v-4.34h30.28V210.42z M594.44,185.22h4.88V232
			h-4.88V185.22z"/>
		<path class="st0" d="M647.98,232v-46.79h4.95V232H647.98z"/>
		<path class="st0" d="M689.02,232.41c-3.48,0-6.81-0.57-9.99-1.71c-3.19-1.14-5.65-2.59-7.38-4.38l1.94-3.81
			c1.65,1.6,3.87,2.95,6.65,4.04c2.78,1.09,5.71,1.64,8.79,1.64c2.94,0,5.34-0.37,7.18-1.1c1.85-0.74,3.21-1.73,4.08-2.97
			c0.87-1.25,1.3-2.63,1.3-4.14c0-1.83-0.52-3.3-1.57-4.41c-1.05-1.11-2.42-1.99-4.11-2.64c-1.69-0.65-3.56-1.21-5.61-1.7
			c-2.05-0.49-4.1-1.01-6.15-1.57c-2.05-0.56-3.93-1.3-5.65-2.24c-1.72-0.94-3.1-2.17-4.14-3.71c-1.05-1.54-1.57-3.55-1.57-6.05
			c0-2.32,0.61-4.45,1.84-6.38c1.23-1.94,3.11-3.5,5.65-4.68c2.54-1.18,5.79-1.77,9.76-1.77c2.63,0,5.24,0.37,7.82,1.1
			c2.58,0.74,4.81,1.75,6.68,3.04l-1.67,3.94c-2-1.34-4.13-2.32-6.38-2.94c-2.25-0.62-4.42-0.94-6.52-0.94
			c-2.81,0-5.12,0.38-6.95,1.14c-1.83,0.76-3.17,1.77-4.04,3.04c-0.87,1.27-1.3,2.71-1.3,4.31c0,1.83,0.52,3.3,1.57,4.41
			c1.05,1.11,2.43,1.98,4.14,2.61c1.71,0.62,3.6,1.18,5.65,1.67c2.05,0.49,4.09,1.03,6.12,1.6s3.9,1.33,5.61,2.24
			c1.71,0.91,3.1,2.13,4.14,3.64c1.05,1.52,1.57,3.5,1.57,5.95c0,2.27-0.62,4.38-1.87,6.32c-1.25,1.94-3.15,3.5-5.71,4.68
			C696.31,231.82,693.03,232.41,689.02,232.41z"/>
		<path class="st0" d="M761.27,232l-15.77-46.79h5.08l14.77,44.04h-2.54l15.24-44.04h4.54l15.04,44.04h-2.41l14.9-44.04h4.75
			L799.1,232h-5.21l-14.37-41.77h1.34L766.41,232H761.27z"/>
		<path class="st0" d="M836.79,227.73h28.14V232h-33.08v-46.79h32.08v4.28h-27.13V227.73z M836.26,206.14h24.73v4.21h-24.73V206.14z
			"/>
		<path class="st0" d="M877.03,232l21.39-46.79h4.88L924.68,232h-5.21l-19.65-43.91h2L882.17,232H877.03z M885.45,219.51l1.47-4.01
			h27.2l1.47,4.01H885.45z"/>
		<path class="st0" d="M940.39,232v-46.79h4.95v42.51h26.2V232H940.39z"/>
		<path class="st0" d="M992.45,232V189.5h-16.44v-4.28h37.83v4.28H997.4V232H992.45z"/>
		<path class="st0" d="M1034.63,232h-4.95v-46.79h4.95V232z M1064.37,210.42h-30.28v-4.34h30.28V210.42z M1063.9,185.22h4.88V232
			h-4.88V185.22z"/>
	</g>
</g>
</svg>
